<svg xmlns="http://www.w3.org/2000/svg" viewBox="0 0 256 256"><defs><style>.cls-1{fill:none;}.cls-2{fill:#3400fd;}</style></defs><g id="Layer_2" data-name="Layer 2"><g id="Layer_1-2" data-name="Layer 1"><rect class="cls-1" width="256" height="256"/><path class="cls-2" d="M184.2,129.24a.93.93,0,0,1,1.76.13,64.52,64.52,0,0,1-.41,33.26C179.32,185.26,160.73,200.68,137,203c-15.51,1.54-30.31-.56-43.73-9-23.78-15-29-43.4-23.65-64.61a.93.93,0,0,1,1.74-.14c12.57,28.53,35.65,38.87,65.5,35.87C159.3,162.88,175.33,151.18,184.2,129.24Z"/><path class="cls-2" d="M236.3,117.3c-5-20.83-14.51-39.09-30.51-53.57-7.75-7-16.54-12.21-27.6-9.42-4,1-7.75,3.23-11.88,5.1a.94.94,0,0,1-1-.13c-7.48-6.56-9.51-20.24-3.9-30.35,6-10.75,18.62-16,30-11.67a46.23,46.23,0,0,1,14.12,8.58c20.09,18.07,30.33,41.28,33.07,67.78,1.18,11.31-.13,22.88.24,34.28Q237.58,122.59,236.3,117.3Z"/><path class="cls-2" d="M17.89,123.45C13.52,84.3,22.34,49.79,52.84,23c5.62-4.94,12.2-7.8,19.82-7.46,11,.48,18.79,5.93,22.88,16,4.22,10.36,1.67,19.65-5.3,27.91a.93.93,0,0,1-1.23.16c-13.81-9.24-25.33-8.41-38,2.73C33.8,77.51,23.84,96.88,18.86,119.05,18.54,120.52,18.21,122,17.89,123.45Z"/></g></g></svg>