<svg xmlns="http://www.w3.org/2000/svg" viewBox="0 0 188 222.26"><defs><style>.cls-1{fill:#3400fd;}</style></defs><g id="Layer_2" data-name="Layer 2"><g id="Layer_1-2" data-name="Layer 1"><path class="cls-1" d="M70.32,165.64a2.34,2.34,0,0,1-.56,4.41,64.1,64.1,0,0,1-28.89-1.34c-22.63-6.23-38-24.82-40.4-48.51-1.54-15.51.55-30.31,9-43.73,14-22.23,39.74-28.2,60.35-24.55a2.34,2.34,0,0,1,.67,4.39c-25.71,12.9-35,35.23-32.15,63.75C40.49,141.07,50.91,156.49,70.32,165.64Z"/><path class="cls-1" d="M80,221l6.23-1.49c20.82-5,39.08-14.51,53.56-30.5,7-7.76,12.22-16.55,9.43-27.61-.95-3.75-2.94-7.23-4.72-11a2.31,2.31,0,0,1,.45-2.6c6.79-6.86,19.88-8.57,29.64-3.15,10.75,6,16,18.62,11.67,30a46.4,46.4,0,0,1-8.57,14.12c-18.08,20.09-41.29,30.33-67.79,33.07-9.82,1-19.85.17-29.78.17Z"/><path class="cls-1" d="M80.05,1.05c39.16-4.37,73.66,4.45,100.46,35,4.94,5.62,7.8,12.2,7.46,19.82-.48,11-5.93,18.79-16,22.88s-18.88,1.87-26.89-4.46a2.34,2.34,0,0,1-.51-3.09c8.52-13.36,7.47-24.63-3.39-36.94C126,17,106.63,7,84.45,2Z"/></g></g></svg>